<?xml version="1.0" encoding="UTF-8" standalone="no"?>
<!-- Exported by Character Map UWP -->

<svg
   height="100%"
   viewBox="64 64 896 896"
   width="100%"
   version="1.1"
   id="svg1"
   sodipodi:docname="JavaScript.svg"
   inkscape:version="1.3.2 (091e20e, 2023-11-25, custom)"
   xmlns:inkscape="http://www.inkscape.org/namespaces/inkscape"
   xmlns:sodipodi="http://sodipodi.sourceforge.net/DTD/sodipodi-0.dtd"
   xmlns="http://www.w3.org/2000/svg"
   xmlns:svg="http://www.w3.org/2000/svg">
  <defs
     id="defs1" />
  <sodipodi:namedview
     id="namedview1"
     pagecolor="#ffffff"
     bordercolor="#000000"
     borderopacity="0.25"
     inkscape:showpageshadow="2"
     inkscape:pageopacity="0.0"
     inkscape:pagecheckerboard="0"
     inkscape:deskcolor="#d1d1d1"
     inkscape:zoom="0.92745536"
     inkscape:cx="447.46089"
     inkscape:cy="448"
     inkscape:window-width="1920"
     inkscape:window-height="1009"
     inkscape:window-x="-8"
     inkscape:window-y="-8"
     inkscape:window-maximized="1"
     inkscape:current-layer="svg1" />
  <path
     d="M960,192C960,121.4 902.6,64 832,64L192,64C121.4,64 64,121.4 64,192L64,832C64,902.6 121.4,960 192,960L832,960C902.6,960 960,902.6 960,832L960,192ZM425.8,889.8C358.4,889.8 319.4,855 299.4,812.8L368,771.4C381.2,794.8 393.2,814.6 422.2,814.6C449.8,814.6 467.4,803.8 467.4,761.6L467.4,475.4L551.6,475.4L551.6,762.8C551.6,850 500.4,889.8 425.8,889.8ZM597.4,803.8L666,764.2C684,793.6 707.6,815.4 749,815.4C783.8,815.4 806.2,798 806.2,773.8C806.2,745 783.4,734.8 744.8,717.8L723.8,708.8C663,683 622.8,650.4 622.8,581.8C622.8,518.6 671,470.6 746,470.6C799.6,470.6 838,489.2 865.6,538L800,580C785.6,554.2 770,544 745.8,544C721.2,544 705.6,559.6 705.6,580C705.6,605.2 721.2,615.4 757.4,631.2L778.4,640.2C850,670.8 890.2,702.2 890.2,772.6C890.2,848.2 830.6,889.8 750.8,889.8C672.6,889.8 622,852.6 597.4,803.8Z"
     fill="#000000"
     fill-opacity="1"
     id="path1"
     style="fill:#ffdf00;fill-opacity:1" />
</svg>
