<?xml version="1.0" encoding="UTF-8" standalone="no"?>
<!-- Exported by Character Map UWP -->

<svg
   height="100%"
   viewBox="134 0 755 1025"
   width="100%"
   version="1.1"
   id="svg1"
   sodipodi:docname="Java.svg"
   inkscape:version="1.3.2 (091e20e, 2023-11-25, custom)"
   xmlns:inkscape="http://www.inkscape.org/namespaces/inkscape"
   xmlns:sodipodi="http://sodipodi.sourceforge.net/DTD/sodipodi-0.dtd"
   xmlns="http://www.w3.org/2000/svg"
   xmlns:svg="http://www.w3.org/2000/svg">
  <defs
     id="defs1" />
  <sodipodi:namedview
     id="namedview1"
     pagecolor="#ffffff"
     bordercolor="#000000"
     borderopacity="0.25"
     inkscape:showpageshadow="2"
     inkscape:pageopacity="0.0"
     inkscape:pagecheckerboard="0"
     inkscape:deskcolor="#d1d1d1"
     inkscape:zoom="0.81073171"
     inkscape:cx="377.43682"
     inkscape:cy="512.5"
     inkscape:window-width="1920"
     inkscape:window-height="1009"
     inkscape:window-x="-8"
     inkscape:window-y="-8"
     inkscape:window-maximized="1"
     inkscape:current-layer="svg1" />
  <path
     d="M683.48,625.8C703.08,612.4 730.28,600.8 730.28,600.8C730.28,600.8 652.88,614.8 575.88,621.2C481.68,629 380.48,630.6 329.68,623.8C209.48,607.8 395.68,563.6 395.68,563.6C395.68,563.6 323.48,558.8 234.48,601.6C129.48,652.4 494.48,675.6 683.48,625.8ZM512.68,561.6C474.68,476.2 346.48,401.2 512.68,270C720,106.4 613.68,0 613.68,0C656.68,169 462.48,220.2 392.28,325.2C344.48,397 415.68,474 512.68,561.6ZM741.88,209.2C742.08,209.2 391.48,296.8 558.88,489.6C608.28,546.4 545.88,597.6 545.88,597.6C545.88,597.6 671.28,532.8 613.68,451.8C559.88,376.2 518.68,338.6 741.88,209.2ZM729.68,750.2C728.587,752.106 727.241,753.855 725.68,755.4C982.28,688 887.88,517.6 765.28,560.8C758.658,563.233 752.937,567.629 748.88,573.4C756.039,570.809 763.396,568.802 770.88,567.4C832.88,554.4 921.88,650.4 729.68,750.2ZM824,874.8C824,874.8 853,898.6 792.2,917.2C676.4,952.2 310.6,962.8 209,918.6C172.4,902.8 241,880.6 262.6,876C285,871.2 298,872 298,872C257.4,843.4 35.4,928.2 185.2,952.4C593.68,1018.8 930,922.6 824,874.8ZM376.88,792C219.48,836 472.68,926.8 673.08,841C653.535,833.407 634.668,824.174 616.68,813.4C527.28,830.4 485.88,831.6 404.68,822.4C337.68,814.8 376.88,792 376.88,792ZM736.48,986.4C579.08,1016 384.88,1012.6 269.88,993.6C269.88,993.4 293.48,1013 414.68,1020.8C599.08,1032.6 882.28,1014.2 888.88,927C888.88,927 876.08,960 736.48,986.4ZM649.28,706C530.88,728.8 462.28,728.2 375.68,719.2C308.68,712.2 352.48,679.8 352.48,679.8C178.88,737.4 448.88,802.6 691.48,731.6C675.801,726.064 661.434,717.348 649.28,706Z"
     fill="#000000"
     fill-opacity="1"
     id="path1" />
  <path
     style="fill:#5283a2;stroke-width:1.23345;fill-opacity:1"
     d="m 594.52467,752.99742 c 0,-0.56431 7.07694,-5.02122 15.72653,-9.90426 58.02086,-32.755 92.10204,-67.1135 100.82758,-101.64804 6.85255,-27.12146 -5.63725,-54.25901 -31.13219,-67.64335 -14.85239,-7.7972 -30.19357,-9.92307 -45.9514,-6.36762 -4.4096,0.99495 -9.68261,2.13042 -11.71781,2.52327 l -3.70036,0.71428 3.94592,-3.72655 c 2.49947,-2.36052 7.48374,-4.84414 13.59716,-6.77537 36.92671,-11.66514 73.05188,-4.59597 96.60478,18.90416 18.58428,18.54265 24.77184,40.06445 18.53245,64.46024 -4.53653,17.73769 -13.75758,32.0084 -31.58813,48.8865 -24.04196,22.75771 -63.99339,43.4461 -110.65145,57.29955 -7.97119,2.36676 -14.49308,3.8415 -14.49308,3.27719 z"
     id="path2"
     transform="translate(134)" />
  <path
     style="fill:#5283a2;fill-opacity:1;stroke-width:1.23345"
     d="M 235.51115,651.91938 C 136.73281,647.34903 77.347022,633.51083 83.343173,616.46086 c 1.856122,-5.27785 12.01922,-11.99548 30.106027,-19.89956 41.64255,-18.19812 89.19462,-30.12469 126.38283,-31.69818 l 14.87615,-0.62943 -17.3993,4.94431 c -49.06678,13.94314 -79.51626,27.63064 -82.51977,37.09385 -2.48492,7.82929 10.72469,13.84733 39.15493,17.83823 51.63524,7.2483 179.02597,4.94872 276.00181,-4.98221 30.7424,-3.14822 93.66614,-11.7833 117.1781,-16.08046 1.696,-0.30997 -0.80175,1.30448 -5.55054,3.58768 -4.7488,2.28319 -14.24614,7.49273 -21.1052,11.57675 -11.65581,6.94012 -13.75212,7.71368 -32.06979,11.83417 -43.70568,9.83141 -98.78852,16.86204 -161.44595,20.60651 -29.09576,1.73879 -105.35573,2.4738 -131.44132,1.26686 z"
     id="path3"
     transform="translate(134)" />
  <path
     style="fill:#5283a2;fill-opacity:1;stroke-width:1.23345"
     d="m 286.16125,760.34096 c -83.54585,-7.27427 -131.79144,-26.95893 -120.34158,-49.1005 3.8957,-7.53346 15.24429,-15.56689 32.30679,-22.86928 15.95421,-6.82807 16.14285,-6.83118 11.06752,-0.18213 -11.21158,14.68797 -4.51821,24.6932 19.82352,29.63218 10.76872,2.18499 44.37506,5.20394 77.49574,6.96167 54.13974,2.87322 117.36411,-1.90299 185.97032,-14.04889 22.79298,-4.03522 23.18772,-4.06219 25.2858,-1.72729 3.99789,4.44914 16.97566,12.99163 27.38245,18.02424 5.71372,2.76308 10.10264,5.02379 9.75316,5.02379 -0.34948,0 -10.41595,2.48666 -22.36995,5.5259 -37.24467,9.46927 -80.22708,16.85256 -122.75651,21.08646 -22.92597,2.28234 -104.01773,3.38036 -123.61726,1.67385 z"
     id="path4"
     transform="translate(134)" />
  <path
     style="fill:#5283a2;fill-opacity:1;stroke-width:1.23345"
     d="m 328.5724,875.09021 c -75.05447,-4.67304 -133.68672,-26.65567 -133.68672,-50.12233 0,-4.5965 0.74446,-6.20068 5.0405,-10.86134 2.77228,-3.00756 7.39671,-6.84913 10.27652,-8.5368 5.30853,-3.11101 23.24727,-10.60885 25.38189,-10.60885 0.64029,0 -0.20674,2.02015 -1.88229,4.48921 -3.93457,5.79791 -3.84127,8.47374 0.4449,12.75991 5.03566,5.03566 17.29326,8.37028 40.8812,11.12153 36.37744,4.24301 57.08289,5.28037 90.69061,4.5437 34.85573,-0.76402 47.29157,-2.00913 89.42539,-8.95352 l 27.75271,-4.57412 12.33454,6.93541 c 6.78399,3.81447 18.61605,9.66561 26.29346,13.00252 7.67739,3.33692 14.22611,6.33432 14.55268,6.66089 0.88071,0.88071 -28.85803,11.61169 -45.16323,16.29677 -50.77824,14.59045 -110.0289,21.10415 -162.34216,17.84702 z"
     id="path5"
     transform="translate(134)" />
  <path
     style="fill:#5283a2;fill-opacity:1;stroke-width:1.23345"
     d="M 247.92419,972.45896 C 182.64205,969.1001 102.85724,960.63816 50.5716,951.52785 22.266298,946.5959 6.6919089,939.81579 2.10232,930.42738 0.04109806,926.21096 0.02425611,925.56961 1.8593887,921.17647 5.816974,911.70237 18.190106,902.10469 39.627009,891.8806 c 22.194773,-10.58554 48.496034,-18.78972 73.850731,-23.03632 12.38555,-2.07443 34.94619,-2.02545 41.93742,0.091 l 5.55054,1.68035 -12.70343,1.5644 c -23.78526,2.9291 -49.433584,10.59369 -68.305777,20.41208 -18.594774,9.67407 -20.903146,18.83441 -6.566,26.05594 12.568727,6.33079 47.683317,14.81349 79.737017,19.26223 47.4326,6.58318 85.34744,8.8532 161.02628,9.6409 114.62644,1.19308 210.55553,-4.79229 290.8935,-18.14994 49.78294,-8.27732 76.25568,-17.27224 87.51621,-29.7363 4.22942,-4.68146 4.51676,-5.48872 4.05493,-11.39205 -0.27337,-3.49446 -0.98418,-7.46366 -1.57956,-8.82046 -0.89071,-2.02979 -0.22058,-1.81675 3.78197,1.20234 2.67546,2.01808 5.80121,4.79335 6.94612,6.16726 14.3376,17.20557 -22.577,40.66379 -91.13453,57.9135 -56.4867,14.21258 -126.18146,23.54675 -207.59272,27.80275 -27.52417,1.4389 -130.60621,1.38749 -159.11552,-0.0794 z"
     id="path6"
     transform="translate(134)" />
  <path
     style="fill:#5283a2;fill-opacity:1;stroke-width:1.23345"
     d="m 322.54813,1022.4098 c -69.0428,-3.3133 -115.23227,-8.3171 -147.39771,-15.9678 -15.75611,-3.7477 -33.24326,-9.4184 -31.17426,-10.10915 0.83175,-0.27769 10.26767,0.6323 20.96871,2.02218 20.49483,2.66197 49.44187,5.43837 79.27896,7.60397 28.77827,2.0887 134.70505,2.8849 170.2166,1.2794 162.4326,-7.34374 296.07625,-36.34154 335.19104,-72.7293 4.59409,-4.27381 4.98876,-3.064 1.50507,4.61377 -10.24077,22.56985 -38.37569,40.18439 -86.80241,54.34474 -44.79128,13.09729 -104.23829,21.97969 -182.67047,27.29409 -18.70937,1.2677 -140.71031,2.5314 -159.11553,1.6481 z"
     id="path7"
     transform="translate(134)" />
  <path
     style="fill:#f89917;fill-opacity:1;stroke-width:1.23345"
     d="m 424.61284,585.23385 c 6.82711,-7.8044 15.04409,-23.10841 17.52842,-32.6464 2.67985,-10.28862 2.45286,-25.71045 -0.52005,-35.33207 -2.90436,-9.3998 -9.21035,-20.19292 -17.19152,-29.42445 -20.29517,-23.47469 -34.08967,-47.8256 -40.52672,-71.54032 -4.21879,-15.54245 -4.39697,-36.35749 -0.4376,-51.12174 13.81135,-51.50167 69.82367,-98.00643 161.72115,-134.27051 18.82812,-7.42985 50.36599,-18.1276 53.44169,-18.1276 0.72729,0 -6.9754,5.03869 -17.11712,11.19709 -102.14765,62.02758 -144.95574,104.63429 -144.85026,144.16886 0.0458,17.1628 7.35517,34.028 26.94055,62.16092 20.56275,29.53686 22.32839,32.31346 25.47964,40.06872 15.20681,37.42419 -5.73767,78.50572 -58.51696,114.77803 -5.03919,3.46317 -9.66143,6.29665 -10.27164,6.29665 -0.61021,0 1.33398,-2.79322 4.32042,-6.20718 z"
     id="path8"
     transform="translate(134)" />
  <path
     style="fill:#f89917;fill-opacity:1;stroke-width:1.23345"
     d="m 350.25714,534.26538 c -58.78627,-55.14317 -90.87872,-96.9767 -102.3319,-133.39294 -4.20418,-13.36751 -4.80346,-35.38222 -1.30982,-48.11664 5.17397,-18.85929 17.77842,-37.75983 40.54726,-60.80118 16.18408,-16.37777 29.92936,-28.17781 64.98834,-55.79114 14.92479,-11.75515 33.51911,-26.61834 41.3207,-33.02934 19.70978,-16.19659 50.67694,-47.76743 60.73785,-61.92185 15.61143,-21.96331 25.87567,-45.438708 29.86185,-68.297131 2.10015,-12.04316 2.49229,-37.853574 0.75175,-49.479539 -0.60938,-4.070397 -1.46777,-9.898466 -1.90753,-12.951264 l -0.79955,-5.5505413 3.22859,3.700361 c 4.55173,5.2168173 13.5903,24.1926793 16.74428,35.1534293 3.75183,13.03841 4.68751,40.849367 1.87742,55.802696 -5.62658,29.940779 -22.9203,64.319049 -47.27213,93.972529 -21.94162,26.71853 -41.60035,45.78826 -75.98457,73.70807 -24.2131,19.66089 -50.48654,45.83768 -61.05238,60.82778 -29.63702,42.047 -32.24143,80.72861 -8.54186,126.8668 6.07769,11.83201 12.03956,21.083 41.84804,64.93524 12.85622,18.91323 22.7521,35.43566 21.79619,36.39156 -0.27163,0.27163 -11.29777,-9.64048 -24.50253,-22.0269 z"
     id="path9"
     transform="translate(134)" />
</svg>
