<?xml version="1.0" encoding="UTF-8" standalone="no"?>
<!-- Exported by Character Map UWP -->

<svg
   height="100%"
   viewBox="64 64 897 897"
   width="100%"
   version="1.1"
   id="svg1"
   sodipodi:docname="Python.svg"
   inkscape:version="1.3.2 (091e20e, 2023-11-25, custom)"
   xmlns:inkscape="http://www.inkscape.org/namespaces/inkscape"
   xmlns:sodipodi="http://sodipodi.sourceforge.net/DTD/sodipodi-0.dtd"
   xmlns="http://www.w3.org/2000/svg"
   xmlns:svg="http://www.w3.org/2000/svg">
  <defs
     id="defs1" />
  <sodipodi:namedview
     id="namedview1"
     pagecolor="#ffffff"
     bordercolor="#000000"
     borderopacity="0.25"
     inkscape:showpageshadow="2"
     inkscape:pageopacity="0.0"
     inkscape:pagecheckerboard="0"
     inkscape:deskcolor="#d1d1d1"
     inkscape:zoom="0.9264214"
     inkscape:cx="447.96029"
     inkscape:cy="448.5"
     inkscape:window-width="1920"
     inkscape:window-height="1009"
     inkscape:window-x="-8"
     inkscape:window-y="-8"
     inkscape:window-maximized="1"
     inkscape:current-layer="svg1" />
  <path
     d="M943.6,401C928.2,339.2 899,292.6 836.8,292.6L756.6,292.6L756.6,387.4C756.6,461 694.2,523 623,523L409.4,523C351,523 302.6,573 302.6,631.6L302.6,835.2C302.6,893.2 353,927.2 409.4,943.8C477,963.6 542,967.2 623,943.8C676.8,928.2 729.8,896.8 729.8,835.2L729.8,753.8L516.4,753.8L516.4,726.6L836.8,726.6C899,726.6 922,683.2 943.6,618.2C966,551.2 965,486.8 943.6,401ZM636.4,808C658.6,808 676.6,826.2 676.6,848.6C676.6,871.2 658.6,889.4 636.4,889.4C614.4,889.4 596.2,871 596.2,848.6C596.4,826 614.4,808 636.4,808ZM399.6,496.2L613.2,496.2C672.6,496.2 720,447.2 720,387.6L720,183.8C720,125.8 671.2,82.4 613.2,72.6C541.6,60.8 463.8,61.4 399.6,72.8C309.2,88.8 292.8,122.2 292.8,184L292.8,265.4L506.6,265.4L506.6,292.6L212.6,292.6C150.4,292.6 96,330 79,401C59.4,482.4 58.6,533.2 79,618.2C94.2,681.4 130.4,726.6 192.6,726.6L266,726.6L266,629C266,558.4 327,496.2 399.6,496.2ZM386.2,211C364,211 346,192.8 346,170.4C346.2,147.8 364,129.6 386.2,129.6C408.2,129.6 426.4,148 426.4,170.4C426.4,192.8 408.4,211 386.2,211Z"
     fill="#000000"
     fill-opacity="1"
     id="path1" />
  <path
     style="fill:#3674a7;stroke-width:1.07942;fill-opacity:1"
     d="M 113.84887,661.10099 C 98.083944,659.03939 81.256602,652.4679 68.712229,643.47401 60.292414,637.43729 47.073854,623.76681 41.133267,614.95216 29.217881,597.27211 20.066147,573.73809 13.064985,542.77356 4.2016436,503.57302 1.0427582,477.96272 1.0374567,445.26173 1.0318036,410.39175 5.4857495,377.40947 15.572073,337.63025 29.950213,280.92464 64.123865,245.6644 117.65704,232.29941 c 9.10904,-2.27414 10.31537,-2.29311 167.58032,-2.63399 L 443.6426,229.32207 V 215.31716 201.31227 H 336.09556 228.54852 l 0.57592,-51.54241 c 0.70493,-63.086522 1.65042,-70.321259 11.75821,-89.972344 14.09484,-27.402497 47.22341,-43.428677 108.8502,-52.6570411 60.37864,-9.0414582 137.38197,-8.4098331 196.45488,1.6114345 51.18724,8.6835266 89.96252,38.5455966 104.12727,80.1917236 4.98932,14.669177 5.05357,16.581067 4.64683,138.274777 l -0.38423,114.95849 -2.43432,8.63537 c -3.58953,12.73327 -12.93574,30.98096 -21.14633,41.28641 -12.78818,16.05097 -33.48429,29.72775 -54.5854,36.07209 l -8.09567,2.43409 -124.13357,0.66256 c -123.33811,0.65833 -124.20274,0.67803 -134.9278,3.07496 -34.68323,7.75133 -65.28616,28.69896 -85.61415,58.60266 -5.1029,7.50667 -12.55989,22.95518 -15.77703,32.68501 -5.62733,17.01913 -6.01134,22.23739 -6.01134,81.68643 v 54.90915 l -40.7482,-0.13687 c -22.41151,-0.0753 -43.67621,-0.51978 -47.25492,-0.98777 z M 339.55183,143.5745 c 8.14353,-3.98426 15.41141,-11.26463 19.43106,-19.46447 2.88759,-5.89051 3.16332,-7.44092 3.16332,-17.78693 0,-10.346003 -0.27573,-11.896409 -3.16332,-17.786926 -4.0295,-8.219921 -11.28597,-15.47639 -19.51832,-19.518319 -5.84297,-2.868781 -7.49796,-3.17309 -17.25699,-3.17309 -9.75902,0 -11.41402,0.304309 -17.25698,3.17309 -13.79379,6.772487 -21.98745,19.126042 -22.95324,34.606565 -0.9569,15.33795 4.96639,28.0414 16.99256,36.44324 8.22418,5.74567 13.8377,7.30792 24.92406,6.93645 7.62749,-0.25559 10.38767,-0.86093 15.63785,-3.42961 z"
     id="path2"
     transform="translate(64,64)" />
  <path
     style="fill:#fed140;fill-opacity:1;stroke-width:1.07942"
     d="m 421.51444,894.22443 c -31.09171,-2.90095 -71.72291,-12.3326 -98.22744,-22.80139 -21.97796,-8.68086 -39.34354,-19.33343 -53.29458,-32.69248 -14.99928,-14.36281 -23.73733,-28.76589 -28.21708,-46.51066 -2.15556,-8.53845 -2.19334,-11.04748 -1.90156,-126.29242 l 0.2977,-117.58091 3.03189,-9.68031 c 11.91677,-38.04821 40.07578,-65.76828 77.09562,-75.89387 l 10.54397,-2.88397 124.13357,-0.61629 c 123.22319,-0.61178 124.19874,-0.63359 133.01904,-2.9746 26.47871,-7.02776 47.51332,-19.34668 66.28607,-38.82043 19.77124,-20.50953 32.22815,-45.05578 37.05309,-73.0129 1.33316,-7.72475 1.65444,-19.84334 1.65444,-62.4053 v -52.81897 l 49.38357,0.40128 c 46.70995,0.37956 49.79491,0.52616 56.98123,2.70778 16.55601,5.02608 28.40996,12.07443 40.01177,23.79098 19.37215,19.56371 32.265,48.23098 43.06348,95.75173 18.13507,79.8067 17.15173,138.78352 -3.36088,201.57444 -17.38409,53.21428 -35.24486,82.45254 -59.0958,96.7404 -7.98478,4.78328 -21.85159,9.44418 -32.34216,10.87082 -5.65608,0.76919 -62.40585,1.14827 -171.89802,1.14827 H 452.27798 v 14.03249 14.03249 h 106.3231 106.32311 v 45.92096 c 0,37.77811 -0.30446,47.39494 -1.71697,54.23335 -3.66109,17.72449 -11.64098,32.04985 -25.74389,46.21499 -19.28114,19.36623 -45.04047,32.92241 -82.94681,43.65181 -17.6212,4.98768 -41.61512,9.98251 -59.60136,12.40725 -15.43569,2.0809 -57.89885,2.95182 -73.40072,1.50546 z m 164.61191,-70.71151 c 16.18664,-5.2864 28.06296,-23.65327 26.71034,-41.30787 -0.86137,-11.2429 -4.37637,-19.03654 -12.04367,-26.70384 -12.74176,-12.74176 -30.96471,-15.62165 -47.04934,-7.43551 -6.63745,3.37808 -14.57166,11.62447 -18.11007,18.82264 -2.6582,5.40752 -2.93866,7.11133 -2.93866,17.85173 0,11.22012 0.18693,12.23109 3.39629,18.36772 9.75799,18.65833 30.04776,26.93282 50.03511,20.40513 z"
     id="path3"
     transform="translate(64,64)" />
  <path
     style="fill:#fed140;fill-opacity:1;stroke-width:1.07942"
     d="m 411.96271,892.63088 c -23.80362,-3.24238 -54.8671,-10.36179 -77.34177,-17.72589 -14.85812,-4.86844 -41.00728,-18.15289 -51.86707,-26.34981 -16.52558,-12.47344 -29.53963,-28.22749 -35.99194,-43.56975 -6.22408,-14.7996 -6.01745,-10.05378 -6.03478,-138.6075 l -0.016,-118.36214 3.85964,-11.16854 c 12.40666,-35.9009 36.33498,-60.02566 71.69993,-72.28852 l 10.25451,-3.55577 114.41877,-0.83187 c 62.93033,-0.45752 121.70488,-1.28026 130.61011,-1.82831 14.46671,-0.89032 17.39857,-1.42058 27.52527,-4.9783 14.4066,-5.06132 26.20821,-11.18788 37.20069,-19.31197 28.28189,-20.90197 47.65355,-51.01684 54.53337,-84.7767 2.01154,-9.87081 2.17569,-14.78652 2.17569,-65.15416 V 229.6438 l 45.6056,0.47911 c 25.08307,0.26352 48.7629,0.87729 52.62184,1.36394 16.34144,2.06082 34.98975,12.27008 48.57591,26.59349 9.55897,10.07767 14.80611,17.74429 21.71355,31.72574 17.6733,35.77283 33.3738,113.05844 33.32395,164.03694 -0.0403,41.25555 -9.43633,85.7191 -27.31014,129.23677 -10.70202,26.05638 -20.40217,41.93265 -33.52761,54.87477 -9.77793,9.64135 -18.2239,14.62875 -33.06086,19.52267 l -9.17509,3.02638 -80.95668,0.73093 c -44.52617,0.40201 -120.9088,0.78947 -169.73917,0.86101 l -88.78249,0.13008 v 14.03249 14.03249 h 106.4649 106.4649 l -0.79921,47.76444 c -0.69677,41.64241 -1.06223,48.80207 -2.85131,55.86011 -8.2925,32.71433 -35.85633,59.25706 -79.41393,76.47204 -27.13786,10.72551 -70.13871,20.54672 -99.90227,22.81725 -19.57624,1.49338 -57.36842,1.18495 -70.27835,-0.57357 z m 172.93778,-68.36305 c 11.58334,-3.60515 19.49599,-10.9348 25.19259,-23.33642 3.52462,-7.67317 3.56383,-25.58271 0.0728,-33.223 -3.24913,-7.11076 -13.03475,-17.04612 -20.52619,-20.84029 -5.63241,-2.85262 -7.22086,-3.1461 -17.02878,-3.1461 -10.02229,0 -11.34039,0.2577 -17.94278,3.50805 -7.73779,3.8093 -13.91015,9.75588 -18.83759,18.14851 -2.85452,4.86192 -3.16282,6.39076 -3.51756,17.44297 -0.3713,11.56792 -0.24481,12.42172 2.80594,18.94102 1.75711,3.75488 4.73698,8.58355 6.62192,10.73037 10.29942,11.7304 27.88635,16.52848 43.15969,11.77489 z"
     id="path4"
     transform="translate(64,64)" />
  <path
     style="fill:#fed140;fill-opacity:1;stroke-width:1.07942"
     d="m 418.81588,893.55435 c -21.04943,-2.23754 -60.84176,-10.95904 -82.62542,-18.10943 -16.23738,-5.32986 -42.14456,-18.36657 -53.43659,-26.88974 -16.52558,-12.47344 -29.53963,-28.22749 -35.99194,-43.56975 -6.22421,-14.7999 -6.01745,-10.04953 -6.03478,-138.65358 l -0.016,-118.40823 4.21426,-11.96412 c 12.97501,-36.83556 40.21206,-62.84659 76.20271,-72.77258 l 9.7148,-2.67929 115.4982,-0.68141 c 63.524,-0.37478 121.32707,-1.09971 128.45126,-1.61097 54.4495,-3.90744 106.42712,-53.68646 116.52586,-111.59693 1.35765,-7.78538 1.67089,-19.66224 1.67089,-63.35452 v -53.77291 l 38.04964,0.49573 c 58.02086,0.75591 62.74111,1.02279 71.53243,4.04438 15.02274,5.16335 25.29634,11.74028 36.84414,23.58677 21.0873,21.63272 34.09096,52.84026 45.57928,109.38584 14.55525,71.641 12.78605,125.89969 -6.01675,184.52557 -17.81962,55.56036 -37.93361,87.41153 -63.00495,99.77043 -19.41979,9.57297 -13.74533,9.03874 -105.17332,9.90171 -44.52617,0.42029 -120.9088,0.82269 -169.73917,0.89423 l -88.78249,0.13008 v 14.03249 14.03249 H 558.7627 665.24742 l -0.75697,47.22473 c -0.85671,53.44706 -1.43398,58.0635 -9.18949,73.48844 -14.73168,29.29988 -47.262,52.54026 -92.9219,66.38547 -24.96983,7.57148 -58.0407,14.11679 -79.92033,15.81766 -12.69124,0.98659 -55.43498,1.21993 -63.64285,0.34744 z m 164.65499,-68.91116 c 12.94889,-3.33038 24.17649,-14.64195 28.17063,-28.38133 2.51933,-8.66618 1.56339,-21.59056 -2.18258,-29.50893 -3.38971,-7.16523 -11.99249,-15.65493 -20.18353,-19.91822 -5.25529,-2.73528 -6.94094,-3.04706 -16.64182,-3.07813 -9.51662,-0.0305 -11.53117,0.31078 -17.0206,2.88315 -7.56481,3.54491 -16.68542,12.43035 -20.27288,19.75016 -2.20124,4.49137 -2.70651,7.34657 -3.01084,17.01352 -0.34803,11.05553 -0.20767,11.95409 2.90703,18.61005 8.72859,18.65257 28.19274,27.78437 48.23459,22.62973 z"
     id="path5"
     transform="translate(64,64)" />
  <path
     style="fill:#fed140;fill-opacity:1;stroke-width:1.07942"
     d="m 411.25993,892.56289 c -36.59469,-4.89645 -75.34791,-15.52464 -100.32656,-27.51484 -18.44153,-8.85227 -30.06933,-16.8342 -42.21509,-28.97864 -11.97016,-11.96886 -19.27555,-23.04353 -24.10871,-36.54782 l -3.35867,-9.38441 -0.29235,-121.04291 -0.29235,-121.04292 4.23676,-12.02799 c 12.90164,-36.62727 39.93153,-62.62361 75.68549,-72.79146 l 9.17509,-2.60925 113.87906,-0.75507 c 128.72485,-0.8535 138.83836,-1.21555 152.19856,-5.44851 19.12161,-6.05838 36.00556,-15.7328 50.96936,-29.2052 20.79046,-18.71834 35.01933,-41.85402 42.6445,-69.33853 l 2.90202,-10.46018 0.38348,-57.96096 0.38349,-57.96097 37.98222,0.49455 c 60.30549,0.78522 62.54153,0.9229 72.52373,4.46559 13.42,4.76276 22.67927,10.5337 33.24852,20.72249 10.63103,10.24834 17.94962,20.5395 25.02458,35.18876 12.23249,25.32831 23.25257,68.48394 29.90671,117.11733 3.30024,24.12048 3.34215,67.62985 0.0853,88.52618 -3.1709,20.34481 -7.22976,37.78886 -12.91857,55.52105 -13.7044,42.71705 -27.45486,69.10796 -45.11461,86.58739 -7.28957,7.21513 -10.74014,9.69864 -19.02837,13.69554 -18.65256,8.99494 -13.09919,8.49465 -104.03388,9.37215 -44.52617,0.42966 -120.9088,0.83975 -169.73917,0.91129 l -88.78249,0.13008 v 14.03249 14.03249 h 106.49184 106.49183 l -0.76596,47.40044 c -0.66794,41.33343 -1.03234,48.5157 -2.84709,56.11373 -5.28838,22.14163 -21.88896,43.74165 -45.83813,59.64274 -10.11069,6.713 -31.0818,16.5278 -45.7049,21.39059 -26.54991,8.82893 -62.88449,16.44383 -87.64684,18.3688 -19.27621,1.49849 -57.78995,1.15011 -71.1988,-0.64402 z m 178.01401,-70.08922 c 13.34855,-5.99047 22.74234,-19.95234 23.61953,-35.1054 1.04185,-17.99719 -8.00561,-33.07771 -24.47873,-40.80179 -5.22014,-2.44767 -7.4968,-2.84446 -16.32088,-2.84446 -9.10815,0 -10.9606,0.3467 -16.57069,3.10138 -7.70403,3.78283 -16.74899,12.59683 -20.2113,19.69519 -2.10061,4.30662 -2.64545,7.39678 -2.98447,16.92684 -0.40435,11.3667 -0.32663,11.83737 3.10559,18.80922 5.67845,11.53457 15.83402,19.92943 27.75123,22.93991 6.98807,1.76528 18.84969,0.52824 26.08972,-2.72089 z"
     id="path6"
     transform="translate(64,64)" />
  <path
     style="fill:#fed140;fill-opacity:1;stroke-width:1.07942"
     d="m 415.57762,893.13994 c -21.43709,-2.71238 -48.10517,-8.25713 -67.93694,-14.12523 -35.08822,-10.38241 -59.80929,-23.83427 -78.9224,-42.9453 -11.63398,-11.63272 -18.78408,-22.30776 -23.98334,-35.80695 l -3.48404,-9.04585 -0.29655,-121.5707 -0.29655,-121.57071 4.24095,-12.03991 c 12.90592,-36.6394 39.92463,-62.6283 75.6897,-72.8048 l 9.17509,-2.61065 109.56137,-0.74216 c 128.89234,-0.87309 143.51428,-1.38346 156.38736,-5.45867 21.38019,-6.76827 37.84878,-16.74463 54.81478,-33.20574 18.12322,-17.58391 29.44799,-35.73135 36.86032,-59.06706 5.14771,-16.20619 5.6018,-22.68761 5.6018,-79.95693 v -52.81516 l 40.20848,0.55775 c 57.25034,0.79414 60.48542,1.00395 70.57248,4.577 13.2529,4.69448 22.56689,10.50499 33.07189,20.63183 19.04057,18.35517 30.86627,41.74016 41.28457,81.63908 14.55615,55.74564 19.84711,111.71215 14.54162,153.81769 -4.23145,33.58179 -16.61218,75.73023 -31.30042,106.5579 -16.59255,34.82444 -34.8484,52.87886 -61.54535,60.86625 -7.89441,2.36191 -9.67468,2.42964 -83.62569,3.18122 -41.55776,0.42235 -117.94039,0.82527 -169.73917,0.89536 l -94.1796,0.12743 v 14.03249 14.03249 h 106.49585 106.49586 l -0.74827,47.30951 c -0.85743,54.21115 -1.38664,58.20813 -9.86673,74.51958 -17.5619,33.78031 -54.58009,56.74462 -114.9435,71.3054 -22.28529,5.37562 -40.47826,8.47683 -57.48995,9.79984 -15.71355,1.22205 -56.7269,1.16974 -66.64362,-0.085 z m 166.39021,-68.31066 c 11.92878,-2.80772 22.29647,-11.48478 27.67937,-23.16582 2.43458,-5.28307 2.83062,-7.61925 2.86896,-16.92339 0.0391,-9.49801 -0.30222,-11.53541 -2.84265,-16.96643 -4.02926,-8.61389 -11.60996,-16.33741 -20.17285,-20.55291 -6.52766,-3.21356 -7.94452,-3.49624 -17.3841,-3.46835 -8.98663,0.0265 -11.04735,0.40476 -16.40999,3.01183 -7.43131,3.61279 -16.65738,12.57999 -20.31775,19.7477 -2.42949,4.75739 -2.69387,6.54632 -2.69387,18.22816 0,12.37261 0.14511,13.21524 3.23826,18.80341 9.67351,17.47642 27.39852,25.67224 46.03462,21.2858 z"
     id="path7"
     transform="translate(64,64)" />
</svg>
