<?xml version="1.0" encoding="UTF-8" standalone="no"?>
<!-- Exported by Character Map UWP -->

<svg
   height="100%"
   viewBox="0 64 1024 896"
   width="100%"
   version="1.1"
   id="svg1"
   sodipodi:docname="ExpressJS.svg"
   inkscape:version="1.3.2 (091e20e, 2023-11-25, custom)"
   xmlns:inkscape="http://www.inkscape.org/namespaces/inkscape"
   xmlns:sodipodi="http://sodipodi.sourceforge.net/DTD/sodipodi-0.dtd"
   xmlns="http://www.w3.org/2000/svg"
   xmlns:svg="http://www.w3.org/2000/svg">
  <defs
     id="defs1" />
  <sodipodi:namedview
     id="namedview1"
     pagecolor="#ffffff"
     bordercolor="#000000"
     borderopacity="0.25"
     inkscape:showpageshadow="2"
     inkscape:pageopacity="0.0"
     inkscape:pagecheckerboard="0"
     inkscape:deskcolor="#d1d1d1"
     inkscape:zoom="0.890625"
     inkscape:cx="512"
     inkscape:cy="448.5614"
     inkscape:window-width="1920"
     inkscape:window-height="1009"
     inkscape:window-x="-8"
     inkscape:window-y="-8"
     inkscape:window-maximized="1"
     inkscape:current-layer="svg1" />
  <path
     d="M128,64C57.4,64 0,121.4 0,192L0,320C0,390.6 57.4,448 128,448L896,448C966.6,448 1024,390.6 1024,320L1024,192C1024,121.4 966.6,64 896,64L128,64ZM688,208C714.51,208 736,229.49 736,256C736,282.51 714.51,304 688,304C661.49,304 640,282.51 640,256C640,229.49 661.49,208 688,208ZM784,256C784,229.49 805.49,208 832,208C858.51,208 880,229.49 880,256C880,282.51 858.51,304 832,304C805.49,304 784,282.51 784,256ZM128,576C57.4,576 0,633.4 0,704L0,832C0,902.6 57.4,960 128,960L896,960C966.6,960 1024,902.6 1024,832L1024,704C1024,633.4 966.6,576 896,576L128,576ZM688,720C714.51,720 736,741.49 736,768C736,794.51 714.51,816 688,816C661.49,816 640,794.51 640,768C640,741.49 661.49,720 688,720ZM800,768C800,741.49 821.49,720 848,720C874.51,720 896,741.49 896,768C896,794.51 874.51,816 848,816C821.49,816 800,794.51 800,768Z"
     fill="#000000"
     fill-opacity="1"
     id="path1"
     style="fill:#181818;fill-opacity:1" />
  <path
     style="fill:#f0db4f;stroke-width:1.12281;fill-opacity:1"
     d="M 110.61912,382.1932 C 92.426114,379.5271 71.382097,371.33293 56.132294,360.97699 32.025728,344.60653 12.065537,316.31799 5.0177745,288.53504 0.78132469,271.83454 0.03554347,257.38439 0.03554347,192 c 0,-65.38439 0.74578122,-79.83454 4.98223103,-96.535036 C 15.272556,55.039638 48.280737,20.150315 88.778752,6.9304282 109.62753,0.12470202 80.622566,0.56097143 511.91716,0.56591865 940.59216,0.57083587 914.5503,0.18836596 934.76227,6.7761353 975.7384,20.13165 1008.6458,54.782572 1018.9885,95.464964 c 4.5373,17.847426 5.2679,34.630546 4.7072,108.133286 -0.4818,63.15877 -0.6481,67.61653 -2.9011,77.78726 -5.7722,26.05653 -16.2547,45.26936 -34.90474,63.97489 -18.45277,18.5077 -36.86513,28.75808 -63.82651,35.533 -6.99262,1.75711 -36.32862,1.90799 -406.13353,2.08883 -223.54597,0.10931 -401.54515,-0.2372 -405.3107,-0.78903 z M 696.77624,239.61457 c 18.49581,-3.40782 33.38815,-17.19087 38.05341,-35.21889 10.46831,-40.45288 -30.9909,-74.11254 -68.54703,-55.65157 -8.9365,4.39279 -17.58427,13.1546 -22.10882,22.40038 -3.4572,7.06469 -3.6124,7.96068 -3.6124,20.85551 0,12.89483 0.1552,13.79082 3.6124,20.85551 7.84068,16.02218 24.94446,27.23638 42.49718,27.86357 1.8936,0.0677 6.44097,-0.42936 10.10526,-1.10451 z m 146.35456,-0.50302 c 14.64542,-3.45214 26.30736,-13.05634 32.99389,-27.17215 3.36651,-7.10698 3.59461,-8.37226 3.59461,-19.9394 0,-11.56714 -0.2281,-12.83242 -3.59461,-19.9394 -4.55854,-9.62346 -13.31483,-18.93702 -21.78173,-23.16798 -25.0996,-12.54242 -54.38772,-2.33374 -66.46765,23.16798 -3.36651,7.10698 -3.59461,8.37226 -3.59461,19.9394 0,11.55394 0.23075,12.83797 3.57612,19.89988 6.51015,13.74258 18.50652,23.77437 32.47102,27.15339 8.69865,2.10484 14.0624,2.11855 22.80296,0.0583 z"
     id="path2"
     transform="translate(0,64)" />
  <path
     style="fill:#323330;fill-opacity:1;stroke-width:1.12281"
     d="M 110.61912,894.1932 C 92.426114,891.5271 71.382097,883.33293 56.132294,872.97699 32.025728,856.60653 12.065537,828.31799 5.0177745,800.53504 0.78132469,783.83454 0.03554347,769.38439 0.03554347,704 c 0,-65.38439 0.74578122,-79.83454 4.98223103,-96.53504 10.2547815,-40.42532 43.2629625,-75.31465 83.7609775,-88.53453 20.848778,-6.80573 -8.156186,-6.36946 423.138408,-6.36451 428.675,0.005 402.63314,-0.37755 422.84511,6.21022 40.97613,13.35551 73.88353,48.00643 84.22623,88.68882 4.5373,17.84743 5.2679,34.63055 4.7072,108.13329 -0.4818,63.15877 -0.6481,67.61653 -2.9011,77.78726 -5.7722,26.05653 -16.2547,45.26936 -34.90474,63.97489 -18.45277,18.5077 -36.86513,28.75808 -63.82651,35.533 -6.99262,1.75711 -36.32862,1.90799 -406.13353,2.08883 -223.54597,0.10931 -401.54515,-0.2372 -405.3107,-0.78903 z M 696.77624,751.61457 c 18.49581,-3.40782 33.38815,-17.19087 38.05341,-35.21889 10.46831,-40.45288 -30.9909,-74.11254 -68.54703,-55.65157 -8.9365,4.39279 -17.58427,13.1546 -22.10882,22.40038 -3.4572,7.06469 -3.6124,7.96068 -3.6124,20.85551 0,12.89483 0.1552,13.79082 3.6124,20.85551 7.84068,16.02218 24.94446,27.23638 42.49718,27.86357 1.8936,0.0677 6.44097,-0.42936 10.10526,-1.10451 z m 160.05296,0.0988 c 14.58102,-2.72126 28.36026,-13.2959 34.997,-26.85786 3.4572,-7.06469 3.6124,-7.96068 3.6124,-20.85551 0,-12.89483 -0.1552,-13.79082 -3.6124,-20.85551 -14.24273,-29.10454 -52.48094,-36.69318 -76.32272,-15.14675 -29.11178,26.30907 -16.19145,74.9941 22.11056,83.31464 7.90091,1.71636 11.7381,1.79644 19.21516,0.40099 z"
     id="path3"
     transform="translate(0,64)" />
</svg>
