<?xml version="1.0" encoding="UTF-8" standalone="no"?>
<!-- Exported by Character Map UWP -->

<svg
   height="100%"
   viewBox="66 9 894 1008"
   width="100%"
   version="1.1"
   id="svg1"
   sodipodi:docname="NodeJS.svg"
   inkscape:version="1.3.2 (091e20e, 2023-11-25, custom)"
   xmlns:inkscape="http://www.inkscape.org/namespaces/inkscape"
   xmlns:sodipodi="http://sodipodi.sourceforge.net/DTD/sodipodi-0.dtd"
   xmlns="http://www.w3.org/2000/svg"
   xmlns:svg="http://www.w3.org/2000/svg">
  <defs
     id="defs1" />
  <sodipodi:namedview
     id="namedview1"
     pagecolor="#ffffff"
     bordercolor="#000000"
     borderopacity="0.25"
     inkscape:showpageshadow="2"
     inkscape:pageopacity="0.0"
     inkscape:pagecheckerboard="0"
     inkscape:deskcolor="#d1d1d1"
     inkscape:zoom="0.82440476"
     inkscape:cx="447.59567"
     inkscape:cy="504"
     inkscape:window-width="1920"
     inkscape:window-height="1009"
     inkscape:window-x="-8"
     inkscape:window-y="-8"
     inkscape:window-maximized="1"
     inkscape:current-layer="svg1" />
  <path
     d="M512,1016C498.6,1016 485,1012.4 473.2,1005.6L349.8,932.6C331.4,922.2 340.4,918.6 346.4,916.6C371,908 376,906.2 402.2,891.2C405,889.6 408.6,890.2 411.4,892L506.2,948.2C509.6,950.2 514.4,950.2 517.6,948.2L887,735C890.4,733 892.6,729 892.6,725L892.6,298.6C892.6,294.4 890.4,290.6 886.8,288.4L517.6,75.4C514.2,73.4 509.6,73.4 506.2,75.4L137.2,288.6C133.6,290.6 131.4,294.6 131.4,298.8L131.4,725C131.4,729 133.6,733 137.2,734.8L238.4,793.2C293.4,820.6 327,788.4 327,755.8L327,335C327,329 331.8,324.4 337.8,324.4L384.6,324.4C390.4,324.4 395.4,329 395.4,335L395.4,756C395.4,829.2 355.4,871.2 286,871.2C264.6,871.2 247.8,871.2 201,848L104.2,792.2C80.2,778.4 65.4,752.6 65.4,724.8L65.4,298.6C65.4,271 80.2,245 104.2,231.2L473.2,18C496.6,4.79999 527.6,4.79999 550.8,18L920.2,231.4C944.2,245.2 959,271 959,298.8L959,725C959,752.6 944.2,778.4 920.2,792.4L550.8,1005.6C539,1012.4 525.6,1016 512,1016ZM810.2,595.8C810.2,516 756.2,494.8 642.8,479.8C528,464.6 516.4,456.8 516.4,430C516.4,407.8 526.2,378.2 611.2,378.2C687,378.2 715,394.6 726.6,445.8C727.6,450.6 732,454.2 737,454.2L785,454.2C788,454.2 790.8,453 792.8,450.8C794.8,448.6 795.8,445.6 795.6,442.6C788.2,354.4 729.6,313.4 611.2,313.4C505.8,313.4 443,357.8 443,432.4C443,513.2 505.6,535.6 606.6,545.6C727.6,557.4 737,575.2 737,599C737,640.2 703.8,657.8 626,657.8C528.2,657.8 506.8,633.2 499.6,584.6C498.8,579.4 494.4,575.6 489,575.6L441.2,575.6C435.2,575.6 430.6,580.4 430.6,586.2C430.6,648.4 464.4,722.6 626.2,722.6C743,722.4 810.2,676.2 810.2,595.8Z"
     fill="#000000"
     fill-opacity="1"
     id="path1"
     style="fill:#417e38;fill-opacity:1" />
</svg>
