<?xml version="1.0" encoding="UTF-8" standalone="no"?>
<!-- Exported by Character Map UWP -->

<svg
   height="100%"
   viewBox="128 64 768 896"
   width="100%"
   version="1.1"
   id="svg1"
   sodipodi:docname="HTML5.svg"
   inkscape:version="1.3.2 (091e20e, 2023-11-25, custom)"
   xmlns:inkscape="http://www.inkscape.org/namespaces/inkscape"
   xmlns:sodipodi="http://sodipodi.sourceforge.net/DTD/sodipodi-0.dtd"
   xmlns="http://www.w3.org/2000/svg"
   xmlns:svg="http://www.w3.org/2000/svg">
  <defs
     id="defs1" />
  <sodipodi:namedview
     id="namedview1"
     pagecolor="#ffffff"
     bordercolor="#000000"
     borderopacity="0.25"
     inkscape:showpageshadow="2"
     inkscape:pageopacity="0.0"
     inkscape:pagecheckerboard="0"
     inkscape:deskcolor="#d1d1d1"
     inkscape:zoom="0.92745536"
     inkscape:cx="383.84597"
     inkscape:cy="448"
     inkscape:window-width="1920"
     inkscape:window-height="1009"
     inkscape:window-x="-8"
     inkscape:window-y="-8"
     inkscape:window-maximized="1"
     inkscape:current-layer="svg1" />
  <path
     d="M128,64L197.8,855.6L511,960L826.2,855.6L896,64L128,64ZM744.4,319.8L376.8,319.8L385,418.6L736.2,418.6L709,715.4L513.2,769.4L513.2,770L511,770L313.6,715.4L301.6,563.8L397,563.8L404,640L511,669L618.4,640L630.4,515.6L296.6,515.6L271,224.4L753.2,224.4L744.4,319.8Z"
     fill="#FFFFFF"
     fill-opacity="1"
     id="path1"
     style="fill:#e54c21;fill-opacity:1" />
  <rect
     style="fill:#ffffff;fill-opacity:1"
     id="rect1"
     width="548.81348"
     height="638.30566"
     x="223.96149"
     y="176.13478" />
  <path
     d="m 127.19375,65.383875 69.8,791.600005 313.2,104.4 315.2,-104.4 69.8,-791.600005 z m 616.4,255.800005 h -367.6 l 8.2,98.8 h 351.2 l -27.2,296.8 -195.8,54 v 0.6 h -2.2 l -197.4,-54.6 -12,-151.6 h 95.4 l 7,76.2 107,29 107.4,-29 12,-124.4 h -333.8 l -25.6,-291.2 h 482.2 z"
     fill="#FFFFFF"
     fill-opacity="1"
     id="path1-3"
     style="fill:#e54c21;fill-opacity:1" />
</svg>
