<?xml version="1.0" encoding="UTF-8" standalone="no"?>
<!-- Exported by Character Map UWP -->

<svg
   height="100%"
   viewBox="0 65 1024 897"
   width="100%"
   version="1.1"
   id="svg1"
   sodipodi:docname="React.svg"
   inkscape:version="1.3.2 (091e20e, 2023-11-25, custom)"
   xmlns:inkscape="http://www.inkscape.org/namespaces/inkscape"
   xmlns:sodipodi="http://sodipodi.sourceforge.net/DTD/sodipodi-0.dtd"
   xmlns="http://www.w3.org/2000/svg"
   xmlns:svg="http://www.w3.org/2000/svg">
  <defs
     id="defs1" />
  <sodipodi:namedview
     id="namedview1"
     pagecolor="#ffffff"
     bordercolor="#000000"
     borderopacity="0.25"
     inkscape:showpageshadow="2"
     inkscape:pageopacity="0.0"
     inkscape:pagecheckerboard="0"
     inkscape:deskcolor="#d1d1d1"
     inkscape:zoom="0.9264214"
     inkscape:cx="512.18592"
     inkscape:cy="448.5"
     inkscape:window-width="1920"
     inkscape:window-height="1009"
     inkscape:window-x="-8"
     inkscape:window-y="-8"
     inkscape:window-maximized="1"
     inkscape:current-layer="svg1" />
  <path
     d="M836.4,354.4C825.6,350.8 814.8,347.4 804,344.2C805.8,336.8 807.4,329.4 809,322C833.6,202.8 817.4,107 762.8,75.4C710.2,45.2 624.4,76.6 537.6,152.2C529,159.6 520.6,167.4 512.6,175.2C507.2,170 501.6,164.8 496,159.8C405,79 313.8,45 259.2,76.8C206.8,107.2 191.2,197.4 213.2,310.2C215.4,321.4 217.8,332.4 220.6,343.6C207.8,347.2 195.2,351.2 183.4,355.4C76.6,392.4 -3.1e-005,450.8 -3.1e-005,511.2C-3.1e-005,573.6 81.6,636.2 192.6,674.2C201.6,677.2 210.6,680.2 219.8,682.8C216.8,694.8 214.2,706.6 211.8,718.8C190.8,829.8 207.2,917.8 259.6,948C313.6,979.2 404.4,947.2 492.8,869.8C499.8,863.6 506.8,857.2 513.8,850.4C522.6,859 531.8,867.2 541,875.2C626.6,948.8 711.2,978.6 763.4,948.4C817.4,917.2 835,822.6 812.2,707.4C810.4,698.6 808.4,689.6 806.2,680.4C812.6,678.6 818.8,676.6 825,674.6C940.4,636.4 1024,574.6 1024,511.2C1024,450.6 945.2,391.8 836.4,354.4ZM565.8,184.6C640.2,119.8 709.6,94.4 741.2,112.6C775,132 788,210.4 766.8,313.4C765.4,320.2 764,326.8 762.2,333.4C717.8,323.4 672.8,316.2 627.6,312.2C601.6,275 573.2,239.4 542.4,206C550.2,198.6 557.8,191.6 565.8,184.6ZM334.4,615C344.6,632.4 355,649.8 366,666.8C334.8,663.4 303.8,658.4 273.2,651.8C282,623 293,593.2 305.8,562.8C315,580.4 324.4,597.8 334.4,615ZM273.8,374.4C302.6,368 333.2,362.8 365,358.8C354.4,375.4 344,392.4 334.2,409.6C324.4,426.6 314.8,444 305.8,461.6C293.2,431.8 282.6,402.6 273.8,374.4ZM328.6,512.2C341.8,484.6 356.2,457.6 371.4,431C386.6,404.4 403,378.6 420.2,353.2C450.2,351 480.8,349.8 512,349.8C543.2,349.8 574,351 603.8,353.2C620.8,378.4 637,404.2 652.4,430.6C667.8,457 682.2,484 695.8,511.4C682.4,539 668,566.2 652.6,593C637.4,619.6 621.2,645.4 604.2,671C574.4,673.2 543.4,674.2 512,674.2C480.6,674.2 450.2,673.2 420.8,671.4C403.4,646 387,620 371.6,593.4C356.2,566.8 342,539.8 328.6,512.2ZM689.8,614.6C700,597 709.6,579.2 719,561.2C731.8,590.2 743,619.6 752.8,649.8C721.8,656.8 690.4,662.2 658.8,665.8C669.6,649 679.8,631.8 689.8,614.6ZM718.6,461.6C709.2,444 699.6,426.4 689.6,409.2C679.8,392.2 669.6,375.4 659,358.8C691.2,362.8 722,368.2 750.8,374.8C741.6,404.4 730.8,433.2 718.6,461.6ZM512.4,236.6C533.4,259.4 553.2,283.4 571.6,308.2C532,306.4 492.2,306.4 452.6,308.2C472.2,282.4 492.4,258.4 512.4,236.6ZM280.4,114C314,94.4 388.6,122.4 467.2,192C472.2,196.4 477.2,201.2 482.4,206C451.4,239.4 422.8,275 396.6,312.2C351.4,316.2 306.6,323.2 262.2,333C259.6,322.8 257.4,312.4 255.2,302C236.4,205.2 248.8,132.2 280.4,114ZM231.4,641.2C223,638.8 214.8,636.2 206.6,633.4C164,620 115.6,598.8 80.5999,571C60.3999,557 46.7999,535.4 42.9999,511.2C42.9999,474.6 106.2,427.8 197.4,396C208.8,392 220.4,388.4 232,385C245.6,428.4 262,471 281,512.2C261.8,554 245.2,597.2 231.4,641.2ZM464.6,837.2C431.6,867.4 393.4,891.4 351.8,907.8C329.6,918.4 304,919.4 281.2,910.4C249.4,892 236.2,821.4 254.2,726.4C256.4,715.2 258.8,704 261.6,693C306.4,702.6 351.6,709.2 397.4,712.6C423.8,750 452.8,785.8 483.8,819.4C477.4,825.6 471,831.6 464.6,837.2ZM513.6,788.6C493.2,766.6 472.8,742.2 453,716C472.2,716.8 492,717.2 512,717.2C532.6,717.2 552.8,716.8 572.8,715.8C554.4,741.2 534.6,765.4 513.6,788.6ZM775,848.6C773.2,873 761.2,895.8 742,911.2C710.2,929.6 642.4,905.6 569.2,842.8C560.8,835.6 552.4,827.8 543.8,819.8C574.4,786 602.6,750.2 628.2,712.6C674,708.8 719.6,701.8 764.6,691.6C766.6,699.8 768.4,708 770,716C779.8,759.2 781.4,804.2 775,848.6ZM811.4,633.6C805.8,635.4 800.2,637.2 794.4,638.8C780.4,595.2 763.2,552.6 743.4,511.2C762.6,470.4 778.8,428.4 792.4,385.4C802.8,388.4 812.8,391.6 822.4,394.8C915.6,426.8 981,474.4 981,510.8C981,550 911.2,600.6 811.4,633.6ZM512,603.6C562.6,603.6 603.6,562.6 603.6,512C603.6,461.4 562.6,420.4 512,420.4C461.4,420.4 420.4,461.4 420.4,512C420.4,562.6 461.4,603.6 512,603.6Z"
     fill="#FFFFFF"
     fill-opacity="1"
     id="path1"
     style="fill:#00d9ff;fill-opacity:1" />
</svg>
