<?xml version="1.0" encoding="UTF-8" standalone="no"?>
<!-- Exported by Character Map UWP -->

<svg
   height="100%"
   viewBox="-127 33 1280 961"
   width="100%"
   version="1.1"
   id="svg1"
   sodipodi:docname="Sass.svg"
   inkscape:version="1.3.2 (091e20e, 2023-11-25, custom)"
   xmlns:inkscape="http://www.inkscape.org/namespaces/inkscape"
   xmlns:sodipodi="http://sodipodi.sourceforge.net/DTD/sodipodi-0.dtd"
   xmlns="http://www.w3.org/2000/svg"
   xmlns:svg="http://www.w3.org/2000/svg">
  <defs
     id="defs1" />
  <sodipodi:namedview
     id="namedview1"
     pagecolor="#ffffff"
     bordercolor="#000000"
     borderopacity="0.25"
     inkscape:showpageshadow="2"
     inkscape:pageopacity="0.0"
     inkscape:pagecheckerboard="0"
     inkscape:deskcolor="#d1d1d1"
     inkscape:zoom="0.7125"
     inkscape:cx="640"
     inkscape:cy="480.70175"
     inkscape:window-width="1920"
     inkscape:window-height="1009"
     inkscape:window-x="-8"
     inkscape:window-y="-8"
     inkscape:window-maximized="1"
     inkscape:current-layer="svg1" />
  <path
     d="M475.68,757.84C475.08,759.04 474.48,760 475.68,757.84ZM973.94,583.84C933.715,583.827 894.025,593.065 857.94,610.84C846.14,587.04 833.94,566.24 831.94,550.64C829.54,532.44 826.94,521.64 829.74,500.04C832.54,478.44 845.14,447.84 844.94,445.64C844.74,443.44 842.14,432.44 816.34,432.24C790.54,432.04 768.34,437.24 765.76,444.04C761.203,456.467 757.658,469.242 755.16,482.24C750.56,505.64 703.58,589.24 676.98,632.84C668.18,615.84 660.78,600.84 659.18,588.84C656.78,570.64 654.18,559.84 656.98,538.24C659.78,516.64 672.38,486.04 672.18,483.84C671.98,481.64 669.38,470.64 643.6,470.44C617.82,470.24 595.6,475.44 593,482.24C590.4,489.04 587.6,505.04 582.4,520.44C577.2,535.84 514.62,675.04 498.24,711.24C489.84,729.64 482.64,744.44 477.44,754.44C476.64,756.04 476.04,757.04 475.64,757.84C476.24,756.84 476.64,755.84 476.64,756.24C472.24,764.84 469.64,769.64 469.64,769.64L469.64,769.84C466.24,776.24 462.44,782.04 460.64,782.04C459.44,782.04 456.84,765.24 461.24,742.24C470.64,693.84 492.84,618.64 492.64,616.04C492.44,614.64 496.84,601.64 478.04,594.64C459.84,588.04 453.24,599.04 451.64,599.04C450.04,599.04 448.84,603.04 448.84,603.04C448.84,603.04 469.04,518.24 410.06,518.24C373.26,518.24 322.06,558.64 296.9,595.24C281.1,603.84 246.9,622.44 210.9,642.24C197.1,649.84 182.9,657.64 169.5,665.04C168.5,664.04 167.7,663.04 166.7,662.04C95.1201,585.64 -37.0399,531.64 -31.4399,429.04C-29.4399,391.64 -16.4399,293.44 222.7,174.24C418.7,76.6401 575.4,103.44 602.38,163.04C641.18,248.04 518.6,406.24 315.06,429.04C237.48,437.64 196.7,407.64 186.5,396.44C175.9,384.64 174.3,384.04 170.3,386.24C163.7,389.84 167.9,400.24 170.3,406.44C176.3,422.24 201.3,450.24 243.88,464.24C281.28,476.44 372.24,483.24 482.22,440.64C605.78,393.04 701.96,260.44 673.76,149.44C645.04,36.64 458,-0.359985 281.14,62.44C175.76,99.84 61.8,158.64 -20.18,235.24C-117.56,326.44 -133.14,405.84 -126.74,439.04C-103.96,556.84 58.4,633.64 123.38,690.44C120.18,692.24 117.18,693.84 114.38,695.44C81.8,711.64 -41.98,776.44 -72.9601,844.84C-107.96,922.44 -67.1601,978.04 -40.3801,985.64C43.2,1008.84 128.78,967.04 174.76,898.44C220.74,829.84 215.16,740.24 193.96,699.44C193.76,698.84 193.36,698.44 193.16,697.84C201.56,692.84 210.16,687.84 218.76,682.84C235.34,673.04 251.54,664.04 265.74,656.24C257.74,677.84 251.94,703.84 248.94,741.44C245.34,785.44 263.54,842.44 287.14,864.84C297.54,874.64 310.12,874.84 317.92,874.84C345.52,874.84 357.92,852.04 371.7,824.84C388.7,791.64 403.7,753.04 403.7,753.04C403.7,753.04 384.9,857.44 436.3,857.44C455.08,857.44 473.88,833.24 482.3,820.84L482.3,821.04C482.3,821.04 482.7,820.24 483.7,818.64C485.7,815.64 486.7,813.84 486.7,813.84L486.7,813.24C494.3,800.24 510.9,770.44 535.88,721.24C568.28,657.64 599.26,578.24 599.26,578.24C602.254,595.694 606.396,612.932 611.66,629.84C617.26,648.84 629.06,669.64 638.46,689.84C630.86,700.24 626.26,706.24 626.26,706.24C626.275,706.394 626.346,706.536 626.46,706.64C620.46,714.64 613.66,723.24 606.66,731.64C581.08,762.04 550.66,796.84 546.66,806.84C541.86,818.64 543.06,827.44 552.26,834.24C559.06,839.44 571.06,840.24 583.64,839.24C606.64,837.64 622.84,832.04 630.64,828.44C645.02,823.284 658.61,816.149 671.02,807.24C696.02,788.84 711.22,762.44 709.82,727.64C709.02,708.44 702.82,689.24 695.22,671.24C697.42,668.04 699.82,664.64 702.02,661.24C741.6,603.44 772.2,540 772.2,540C775.194,557.454 779.336,574.692 784.6,591.6C789.4,607.8 798.78,625.6 807.38,643C770.2,673.2 747.2,708.2 739.2,731.2C724.4,773.8 736,793 757.8,797.4C767.6,799.4 781.6,794.8 792,790.4C807.445,785.255 822.009,777.768 835.18,768.2C860.18,749.8 884.36,724 882.76,689C882.16,673.2 877.76,657.4 871.96,642.2C903.36,629 944.14,621.8 996.14,627.8C1107.5,640.8 1129.3,710.4 1125.1,739.4C1120.9,768.4 1097.5,784.6 1089.7,789.4C1081.9,794.2 1079.5,796 1080.1,799.6C1081.1,804.8 1084.7,804.6 1091.3,803.4C1100.5,801.8 1149.68,779.8 1151.88,726C1155.08,658 1089.7,583.2 973.88,583.8ZM115.58,873.24C78.7999,913.44 27.1999,928.64 5.0199,915.84C-18.7801,902 -9.38007,842.84 35.9999,800C63.5999,774 99.1799,750 122.78,735.2C128.18,732 135.98,727.2 145.58,721.4C147.18,720.4 147.98,720 147.98,720C149.78,718.8 151.78,717.8 153.78,716.6C170.36,777.4 154.38,831 115.58,873.2ZM384.3,690.44C371.5,721.84 344.52,801.84 328.12,797.64C314.12,794.04 305.52,733.04 325.32,673.04C335.32,642.84 356.52,606.84 369.12,592.84C389.3,570.24 411.5,563.04 416.7,572.04C423.7,583.84 392.3,670.84 384.3,690.44ZM606.3,796.44C600.9,799.24 595.9,801.04 593.5,799.64C591.7,798.64 595.7,794.84 595.7,794.84C595.7,794.84 623.5,765.04 634.5,751.44C640.9,743.44 648.3,734.04 656.28,723.64C656.28,724.64 656.48,725.64 656.48,726.84C656.22,762.64 621.84,786.84 606.24,796.44ZM777.46,757.44C773.46,754.64 774.06,745.24 787.46,716.04C792.66,704.64 804.64,685.44 825.46,667.04C827.817,674.005 829.098,681.289 829.26,688.64C829.06,733.64 796.86,750.44 777.48,757.44Z"
     fill="#000000"
     fill-opacity="1"
     id="path1"
     style="fill:#c95c99;fill-opacity:1" />
</svg>
