<?xml version="1.0" encoding="UTF-8" standalone="no"?>
<!-- Exported by Character Map UWP -->

<svg
   height="100%"
   viewBox="156 0 712 1024"
   width="100%"
   version="1.1"
   id="svg1"
   sodipodi:docname="Figma.svg"
   inkscape:version="1.3.2 (091e20e, 2023-11-25, custom)"
   xml:space="preserve"
   xmlns:inkscape="http://www.inkscape.org/namespaces/inkscape"
   xmlns:sodipodi="http://sodipodi.sourceforge.net/DTD/sodipodi-0.dtd"
   xmlns="http://www.w3.org/2000/svg"
   xmlns:svg="http://www.w3.org/2000/svg"><defs
     id="defs1" /><sodipodi:namedview
     id="namedview1"
     pagecolor="#ffffff"
     bordercolor="#000000"
     borderopacity="0.25"
     inkscape:showpageshadow="2"
     inkscape:pageopacity="0.0"
     inkscape:pagecheckerboard="0"
     inkscape:deskcolor="#d1d1d1"
     inkscape:zoom="0.5"
     inkscape:cx="308"
     inkscape:cy="429"
     inkscape:window-width="1920"
     inkscape:window-height="1009"
     inkscape:window-x="-8"
     inkscape:window-y="-8"
     inkscape:window-maximized="1"
     inkscape:current-layer="svg1" /><path
     style="fill:#f24d18;fill-opacity:1;stroke-width:1.65199"
     d="M 300.27629,337.50556 C 263.03622,330.94896 227.26093,311.93958 202.71335,285.665 147.2326,226.28098 140.86222,140.58294 187.00641,74.366263 209.4704,42.130569 246.2723,16.993218 286.74816,6.2382195 L 303.36341,1.8233123 406.7002,1.2854057 510.03702,0.7474999 V 170.42854 340.10957 l -98.31642,-0.14634 c -77.02525,-0.11461 -101.15932,-0.64688 -111.44431,-2.45767 z"
     id="path2" /><path
     style="fill:#ff7362;fill-opacity:1;stroke-width:1.66897"
     d="M 510.03838,169.69049 V -0.7244788 l 105.06596,0.57706018 C 715.76071,0.40542288 720.74161,0.57553079 733.78215,3.9056987 798.75357,20.497529 846.31308,65.866057 864.36962,128.47705 c 3.0617,10.61643 3.62373,17.00801 3.62373,41.21344 0,24.20549 -0.56203,30.59705 -3.62373,41.21348 -15.17868,52.63222 -53.98533,95.98614 -103.19757,115.2901 -33.73332,13.23223 -28.51116,12.75439 -146.06771,13.36537 l -105.06596,0.54607 z"
     id="path3" /><path
     style="fill:#a358ff;fill-opacity:1;stroke-width:1.64896"
     d="m 300.53479,676.05498 c -45.91506,-8.07487 -87.69239,-34.22775 -113.29166,-70.92136 -52.50655,-75.26201 -35.44638,-176.15796 39.02156,-230.77818 16.94563,-12.42916 39.61039,-23.1637 60.75909,-28.77689 l 16.5942,-4.4044 103.20595,-0.53661 103.20595,-0.53662 v 169.27593 169.27593 l -98.19191,-0.14599 c -76.9277,-0.11436 -101.03123,-0.64534 -111.30318,-2.45181 z"
     id="path4" /><path
     style="fill:#13bdfe;fill-opacity:1;stroke-width:1.66377"
     d="M 655.94655,676.14888 C 583.44653,662.85633 527.57898,610.33851 513.08858,541.85651 497.36762,467.55884 536.4423,390.83969 607.24991,356.98036 c 16.85002,-8.05748 36.5164,-14.01008 54.78793,-16.58313 18.64711,-2.62598 52.71524,-1.11208 70.47959,3.13191 63.25468,15.11189 112.17214,61.73724 130.11567,124.01897 3.05062,10.58866 3.61064,16.96355 3.61064,41.10574 0,24.1422 -0.56002,30.51707 -3.61064,41.10574 -17.9288,62.23082 -65.32002,107.58372 -129.31252,123.75093 -18.33547,4.63232 -58.94586,6.01709 -77.37403,2.63836 z"
     id="path5" /><path
     style="fill:#02d084;fill-opacity:1;stroke-width:1.6718"
     d="m 301.49406,1023.6515 c -46.94205,-8.7577 -87.98234,-35.11092 -114.65574,-73.62379 -68.25553,-98.55183 -17.48656,-233.86057 99.71486,-265.75869 l 16.61425,-4.52181 103.4281,-0.55121 103.42811,-0.55115 -0.66886,98.21073 c -0.56545,83.02213 -1.08501,99.88976 -3.35968,109.06739 -16.77553,67.6852 -65.4483,117.66163 -131.14522,134.65773 -21.04128,5.4434 -53.38143,6.7974 -73.35582,3.0708 z"
     id="path6" /></svg>
