<?xml version="1.0" encoding="UTF-8" standalone="no"?>
<!-- Exported by Character Map UWP -->

<svg
   height="100%"
   viewBox="0 2 1023 1023"
   width="100%"
   version="1.1"
   id="svg1"
   sodipodi:docname="UI&amp;UX.svg"
   inkscape:version="1.3.2 (091e20e, 2023-11-25, custom)"
   xmlns:inkscape="http://www.inkscape.org/namespaces/inkscape"
   xmlns:sodipodi="http://sodipodi.sourceforge.net/DTD/sodipodi-0.dtd"
   xmlns="http://www.w3.org/2000/svg"
   xmlns:svg="http://www.w3.org/2000/svg">
  <defs
     id="defs1" />
  <sodipodi:namedview
     id="namedview1"
     pagecolor="#ffffff"
     bordercolor="#000000"
     borderopacity="0.25"
     inkscape:showpageshadow="2"
     inkscape:pageopacity="0.0"
     inkscape:pagecheckerboard="0"
     inkscape:deskcolor="#d1d1d1"
     inkscape:zoom="0.81231672"
     inkscape:cx="510.88448"
     inkscape:cy="511.5"
     inkscape:window-width="1920"
     inkscape:window-height="1009"
     inkscape:window-x="-8"
     inkscape:window-y="-8"
     inkscape:window-maximized="1"
     inkscape:current-layer="svg1" />
  <path
     d="M938.6,38.6L985.4,85.4C1035.4,135.4 1035.4,216.4 985.4,266.4L872.6,379.2L644.6,151.4L757.4,38.6C807.4,-11.4 888.4,-11.4 938.4,38.6ZM89.8,706.4L599.4,196.6L827.4,424.6L317.6,934.2C304.2,947.6 287.4,957.4 269.2,962.6L61.2,1022C44.4,1026.8 26.4,1022.2 14,1009.8C1.60004,997.4 -2.99997,979.4 1.80002,962.6L61.2,754.6C66.4,736.2 76.2,719.6 89.6,706.2ZM498.8,206.8L206.8,498.8L32,323.8C-5.39999,286.4 -5.39999,225.6 32,188L188.2,32C225.6,-5.40002 286.4,-5.40002 324,32L363.6,71.6C363,72.2 362.2,72.8 361.6,73.4L233.6,201.4C221.2,213.8 221.2,234.2 233.6,246.6C246,259 266.4,259 278.8,246.6L406.8,118.6C407.4,118 408,117.2 408.6,116.6L498.8,206.8ZM817.2,525.2L907.4,615.4C906.8,616 906,616.6 905.4,617.2L777.4,745.2C765,757.6 765,778 777.4,790.4C789.8,802.8 810.2,802.8 822.6,790.4L950.6,662.4C951.2,661.8 951.8,661 952.4,660.4L992,700.2C1029.4,737.6 1029.4,798.4 992,836L835.8,992C798.4,1029.4 737.6,1029.4 700,992L525.2,817.2L817.2,525.2Z"
     fill="#000000"
     fill-opacity="1"
     id="path1" />
  <path
     style="fill:#00a5fd;fill-opacity:1;stroke-width:1.23105"
     d="M 758.94409,262.84701 645.69143,149.5745 704.77803,90.4181 c 32.49762,-32.53602 62.6874,-61.829128 67.0884,-65.095793 38.83242,-28.8236219 89.53361,-33.5254993 132.06898,-12.247686 16.64684,8.327382 24.72426,14.926385 55.47108,45.318128 32.22869,31.856499 41.55731,43.095941 49.67551,59.851001 8.6685,17.89048 11.6159,30.09805 12.3196,51.0252 0.6886,20.47718 -1.4426,33.96059 -8.0767,51.09919 -8.7065,22.49247 -11.0465,25.26082 -78.83102,93.25841 l -62.29713,62.49298 z"
     id="path2"
     transform="translate(0,2)" />
  <path
     style="fill:#00a5fd;fill-opacity:1;stroke-width:1.23105"
     d="M 35.613386,1019.5431 C 13.423657,1013.2724 -2.3755854,989.61092 1.1809983,967.97608 1.771268,964.38545 16.181638,912.69819 33.204044,853.11552 66.196635,737.63321 67.957239,732.49393 79.805167,717.08484 83.189054,712.68384 201.50924,593.58049 342.73892,452.41072 L 599.52013,195.7384 712.94463,309.1629 826.36912,422.5874 567.55759,680.9381 C 425.21124,823.03099 305.56085,941.51682 301.66784,944.23996 287.17955,954.37437 278.16398,957.38238 166.80686,989.23577 52.13609,1022.037 47.900649,1023.0154 35.613386,1019.5431 Z"
     id="path3"
     transform="translate(0,2)" />
  <path
     style="fill:#00a5fd;fill-opacity:1;stroke-width:1.23105"
     d="m 759.55596,262.19675 -112.6408,-112.74513 61.586,-61.260127 c 66.22852,-65.878103 69.51948,-68.679409 91.37082,-77.776147 17.71408,-7.374388 26.07229,-8.9616741 47.70383,-9.0593032 17.88591,-0.080724 20.82022,0.2233169 31.91684,3.307087 14.97108,4.1604902 31.71667,12.2587512 43.15808,20.8714942 10.51723,7.917046 55.34618,51.70536 67.06261,65.505844 15.76266,18.566502 25.54616,38.316612 29.08776,58.720382 3.0456,17.54652 1.9065,44.81588 -2.4863,59.51713 -4.6481,15.55607 -10.597,27.29801 -19.47082,38.43161 -4.19921,5.26857 -33.9627,36.05116 -66.14108,68.40574 l -58.50615,58.82654 z"
     id="path4"
     transform="translate(0,2)" />
  <path
     style="fill:#00a5fd;fill-opacity:1;stroke-width:1.23105"
     d="m 32.300031,1017.7253 c -7.264583,-2.7909 -15.979042,-9.6403 -21.519267,-16.9136 -5.0691071,-6.65477 -9.5497171,-19.04186 -9.5497171,-26.4011 0,-5.46618 6.2763173,-28.655 34.5564331,-127.67408 22.911865,-80.22286 31.228749,-106.57648 37.22047,-117.94015 5.477062,-10.3876 39.66921,-45.18886 303.59909,-309.00747 L 599.51861,196.97131 712.16002,309.60768 c 61.95278,61.95001 112.64142,112.96618 112.64142,113.36929 0,1.30824 -512.48758,510.94836 -520.43047,517.53887 -13.75232,11.41082 -22.9969,14.88036 -96.32404,36.15082 -68.46959,19.8614 -130.129346,37.10554 -144.03249,40.28114 -14.906054,3.4045 -24.278366,3.6343 -31.714409,0.7775 z"
     id="path5"
     transform="translate(0,2)" />
  <path
     style="fill:#ff2965;fill-opacity:1;stroke-width:1.23105"
     d="M 116.82252,405.93773 C 67.711719,356.68046 25.474571,313.51307 22.962192,310.01022 16.587285,301.12204 9.2445862,284.78777 6.9006887,274.28044 4.4733822,263.39922 4.3817987,245.27689 6.6988704,234.34512 9.1646613,222.71172 15.215457,208.92466 22.125715,199.19424 25.740045,194.10486 61.37057,157.6245 112.83069,106.32585 188.83152,30.563483 198.59998,21.248928 207.43141,16.120875 222.69831,7.2560089 233.9861,4.0614006 252.46839,3.374752 c 17.95965,-0.6672315 30.00395,1.6897293 44.82944,8.772723 12.47712,5.961033 20.82144,12.816958 44.30333,36.400838 l 20.91343,21.004262 -67.2365,67.400605 c -75.18828,75.37181 -72.09787,71.55536 -70.94869,87.61673 1.01018,14.11858 9.61456,25.09682 22.37748,28.55116 6.50975,1.7619 18.75022,0.77347 24.17908,-1.95247 2.33916,-1.17456 34.30893,-32.12743 71.04391,-68.78416 l 66.79088,-66.64861 44.61683,44.61682 44.61683,44.61684 -145.25955,145.26345 c -79.89274,79.89489 -145.55664,145.26345 -145.91976,145.26345 -0.36312,0 -40.84178,-40.3014 -89.95258,-89.55866 z"
     id="path6"
     transform="translate(0,2)" />
  <path
     style="fill:#ff2965;fill-opacity:1;stroke-width:1.23105"
     d="m 753.1925,1016.2854 c -17.45142,-3.2019 -31.79343,-9.7569 -45.48126,-20.78731 -5.00066,-4.02979 -47.8692,-46.16308 -95.26342,-93.62951 L 526.27651,815.56595 671.84295,669.9995 817.4094,524.43306 l 44.31623,44.30339 44.31622,44.3034 -66.42045,66.4873 c -73.15244,73.22608 -71.75588,71.54484 -71.75588,86.38244 0,24.38315 25.25539,39.68982 47.31112,28.6741 3.60172,-1.79888 26.66926,-23.96861 71.52901,-68.74503 l 66.21287,-66.08988 23.10587,23.43608 c 26.07721,26.44988 32.21191,35.00517 38.43231,53.59673 8.6401,25.82352 5.4739,53.93539 -8.8431,78.51468 -3.0107,5.16868 -26.87965,29.92113 -89.68746,93.00712 -47.07174,47.28023 -88.99394,88.42313 -93.16044,91.42868 -8.75881,6.31823 -20.14879,11.73903 -30.63139,14.57823 -8.67509,2.3497 -30.78733,3.4712 -38.94181,1.9751 z"
     id="path7"
     transform="translate(0,2)" />
</svg>
